<?xml version="1.0" encoding="utf-8" standalone="no"?>
<!DOCTYPE svg PUBLIC "-//W3C//DTD SVG 1.1//EN"
  "http://www.w3.org/Graphics/SVG/1.1/DTD/svg11.dtd">
<svg xmlns:xlink="http://www.w3.org/1999/xlink" width="580.284453pt" height="278.438828pt" viewBox="0 0 580.284453 278.438828" xmlns="http://www.w3.org/2000/svg" version="1.1">
 <metadata>
  <rdf:RDF xmlns:dc="http://purl.org/dc/elements/1.1/" xmlns:cc="http://creativecommons.org/ns#" xmlns:rdf="http://www.w3.org/1999/02/22-rdf-syntax-ns#">
   <cc:Work>
    <dc:type rdf:resource="http://purl.org/dc/dcmitype/StillImage"/>
    <dc:date>2026-07-06T00:10:01.597017</dc:date>
    <dc:format>image/svg+xml</dc:format>
    <dc:creator>
     <cc:Agent>
      <dc:title>Matplotlib v3.11.0, https://matplotlib.org/</dc:title>
     </cc:Agent>
    </dc:creator>
   </cc:Work>
  </rdf:RDF>
 </metadata>
 <defs>
  <style type="text/css">*{stroke-linejoin: round; stroke-linecap: butt}</style>
 </defs>
 <g id="figure_1">
  <g id="patch_1">
   <path d="M 0 278.438828 
L 580.284453 278.438828 
L 580.284453 0 
L 0 0 
L 0 278.438828 
z
" style="fill: none"/>
  </g>
  <g id="axes_1">
   <g id="patch_2">
    <path d="M 43.198359 238.237969 
L 560.838359 238.237969 
L 560.838359 23.077969 
L 43.198359 23.077969 
L 43.198359 238.237969 
z
" style="fill: none"/>
   </g>
   <g id="matplotlib.axis_1">
    <g id="xtick_1">
     <g id="line2d_1">
      <path d="M 43.198359 238.237969 
L 43.198359 23.077969 
" clip-path="url(#p03bd994740)" style="fill: none; stroke: #edf2f7; stroke-linecap: square"/>
     </g>
     <g id="line2d_2">
      <defs>
       <path id="m596f06c0c6" d="M 0 0 
L 0 3.5 
" style="stroke: #4a5568; stroke-width: 0.8"/>
      </defs>
      <g>
       <use xlink:href="#m596f06c0c6" x="43.198359" y="238.237969" style="fill: #4a5568; stroke: #4a5568; stroke-width: 0.8"/>
      </g>
     </g>
     <g id="text_1">
      <text style="font-size: 11px; font-family: 'DejaVu Sans'; text-anchor: middle; fill: #4a5568" x="43.198359" y="253.595391" transform="rotate(-0 43.198359 253.595391)">0.0</text>
     </g>
    </g>
    <g id="xtick_2">
     <g id="line2d_3">
      <path d="M 107.903359 238.237969 
L 107.903359 23.077969 
" clip-path="url(#p03bd994740)" style="fill: none; stroke: #edf2f7; stroke-linecap: square"/>
     </g>
     <g id="line2d_4">
      <g>
       <use xlink:href="#m596f06c0c6" x="107.903359" y="238.237969" style="fill: #4a5568; stroke: #4a5568; stroke-width: 0.8"/>
      </g>
     </g>
     <g id="text_2">
      <text style="font-size: 11px; font-family: 'DejaVu Sans'; text-anchor: middle; fill: #4a5568" x="107.903359" y="253.595391" transform="rotate(-0 107.903359 253.595391)">2.5</text>
     </g>
    </g>
    <g id="xtick_3">
     <g id="line2d_5">
      <path d="M 172.608359 238.237969 
L 172.608359 23.077969 
" clip-path="url(#p03bd994740)" style="fill: none; stroke: #edf2f7; stroke-linecap: square"/>
     </g>
     <g id="line2d_6">
      <g>
       <use xlink:href="#m596f06c0c6" x="172.608359" y="238.237969" style="fill: #4a5568; stroke: #4a5568; stroke-width: 0.8"/>
      </g>
     </g>
     <g id="text_3">
      <text style="font-size: 11px; font-family: 'DejaVu Sans'; text-anchor: middle; fill: #4a5568" x="172.608359" y="253.595391" transform="rotate(-0 172.608359 253.595391)">5.0</text>
     </g>
    </g>
    <g id="xtick_4">
     <g id="line2d_7">
      <path d="M 237.313359 238.237969 
L 237.313359 23.077969 
" clip-path="url(#p03bd994740)" style="fill: none; stroke: #edf2f7; stroke-linecap: square"/>
     </g>
     <g id="line2d_8">
      <g>
       <use xlink:href="#m596f06c0c6" x="237.313359" y="238.237969" style="fill: #4a5568; stroke: #4a5568; stroke-width: 0.8"/>
      </g>
     </g>
     <g id="text_4">
      <text style="font-size: 11px; font-family: 'DejaVu Sans'; text-anchor: middle; fill: #4a5568" x="237.313359" y="253.595391" transform="rotate(-0 237.313359 253.595391)">7.5</text>
     </g>
    </g>
    <g id="xtick_5">
     <g id="line2d_9">
      <path d="M 302.018359 238.237969 
L 302.018359 23.077969 
" clip-path="url(#p03bd994740)" style="fill: none; stroke: #edf2f7; stroke-linecap: square"/>
     </g>
     <g id="line2d_10">
      <g>
       <use xlink:href="#m596f06c0c6" x="302.018359" y="238.237969" style="fill: #4a5568; stroke: #4a5568; stroke-width: 0.8"/>
      </g>
     </g>
     <g id="text_5">
      <text style="font-size: 11px; font-family: 'DejaVu Sans'; text-anchor: middle; fill: #4a5568" x="302.018359" y="253.595391" transform="rotate(-0 302.018359 253.595391)">10.0</text>
     </g>
    </g>
    <g id="xtick_6">
     <g id="line2d_11">
      <path d="M 366.723359 238.237969 
L 366.723359 23.077969 
" clip-path="url(#p03bd994740)" style="fill: none; stroke: #edf2f7; stroke-linecap: square"/>
     </g>
     <g id="line2d_12">
      <g>
       <use xlink:href="#m596f06c0c6" x="366.723359" y="238.237969" style="fill: #4a5568; stroke: #4a5568; stroke-width: 0.8"/>
      </g>
     </g>
     <g id="text_6">
      <text style="font-size: 11px; font-family: 'DejaVu Sans'; text-anchor: middle; fill: #4a5568" x="366.723359" y="253.595391" transform="rotate(-0 366.723359 253.595391)">12.5</text>
     </g>
    </g>
    <g id="xtick_7">
     <g id="line2d_13">
      <path d="M 431.428359 238.237969 
L 431.428359 23.077969 
" clip-path="url(#p03bd994740)" style="fill: none; stroke: #edf2f7; stroke-linecap: square"/>
     </g>
     <g id="line2d_14">
      <g>
       <use xlink:href="#m596f06c0c6" x="431.428359" y="238.237969" style="fill: #4a5568; stroke: #4a5568; stroke-width: 0.8"/>
      </g>
     </g>
     <g id="text_7">
      <text style="font-size: 11px; font-family: 'DejaVu Sans'; text-anchor: middle; fill: #4a5568" x="431.428359" y="253.595391" transform="rotate(-0 431.428359 253.595391)">15.0</text>
     </g>
    </g>
    <g id="xtick_8">
     <g id="line2d_15">
      <path d="M 496.133359 238.237969 
L 496.133359 23.077969 
" clip-path="url(#p03bd994740)" style="fill: none; stroke: #edf2f7; stroke-linecap: square"/>
     </g>
     <g id="line2d_16">
      <g>
       <use xlink:href="#m596f06c0c6" x="496.133359" y="238.237969" style="fill: #4a5568; stroke: #4a5568; stroke-width: 0.8"/>
      </g>
     </g>
     <g id="text_8">
      <text style="font-size: 11px; font-family: 'DejaVu Sans'; text-anchor: middle; fill: #4a5568" x="496.133359" y="253.595391" transform="rotate(-0 496.133359 253.595391)">17.5</text>
     </g>
    </g>
    <g id="xtick_9">
     <g id="line2d_17">
      <path d="M 560.838359 238.237969 
L 560.838359 23.077969 
" clip-path="url(#p03bd994740)" style="fill: none; stroke: #edf2f7; stroke-linecap: square"/>
     </g>
     <g id="line2d_18">
      <g>
       <use xlink:href="#m596f06c0c6" x="560.838359" y="238.237969" style="fill: #4a5568; stroke: #4a5568; stroke-width: 0.8"/>
      </g>
     </g>
     <g id="text_9">
      <text style="font-size: 11px; font-family: 'DejaVu Sans'; text-anchor: middle; fill: #4a5568" x="560.838359" y="253.595391" transform="rotate(-0 560.838359 253.595391)">20.0</text>
     </g>
    </g>
    <g id="text_10">
     <text style="font-size: 11px; font-family: 'DejaVu Sans'; text-anchor: middle; fill: #2d3748" x="302.018359" y="268.59625" transform="rotate(-0 302.018359 268.59625)">term frequency in document</text>
    </g>
   </g>
   <g id="matplotlib.axis_2">
    <g id="ytick_1">
     <g id="line2d_19">
      <path d="M 43.198359 238.237969 
L 560.838359 238.237969 
" clip-path="url(#p03bd994740)" style="fill: none; stroke: #edf2f7; stroke-linecap: square"/>
     </g>
     <g id="line2d_20">
      <defs>
       <path id="m5f1094da16" d="M 0 0 
L -3.5 0 
" style="stroke: #4a5568; stroke-width: 0.8"/>
      </defs>
      <g>
       <use xlink:href="#m5f1094da16" x="43.198359" y="238.237969" style="fill: #4a5568; stroke: #4a5568; stroke-width: 0.8"/>
      </g>
     </g>
     <g id="text_11">
      <text style="font-size: 11px; font-family: 'DejaVu Sans'; text-anchor: end; fill: #4a5568" x="36.198359" y="242.41668" transform="rotate(-0 36.198359 242.41668)">0</text>
     </g>
    </g>
    <g id="ytick_2">
     <g id="line2d_21">
      <path d="M 43.198359 202.377969 
L 560.838359 202.377969 
" clip-path="url(#p03bd994740)" style="fill: none; stroke: #edf2f7; stroke-linecap: square"/>
     </g>
     <g id="line2d_22">
      <g>
       <use xlink:href="#m5f1094da16" x="43.198359" y="202.377969" style="fill: #4a5568; stroke: #4a5568; stroke-width: 0.8"/>
      </g>
     </g>
     <g id="text_12">
      <text style="font-size: 11px; font-family: 'DejaVu Sans'; text-anchor: end; fill: #4a5568" x="36.198359" y="206.55668" transform="rotate(-0 36.198359 206.55668)">2</text>
     </g>
    </g>
    <g id="ytick_3">
     <g id="line2d_23">
      <path d="M 43.198359 166.517969 
L 560.838359 166.517969 
" clip-path="url(#p03bd994740)" style="fill: none; stroke: #edf2f7; stroke-linecap: square"/>
     </g>
     <g id="line2d_24">
      <g>
       <use xlink:href="#m5f1094da16" x="43.198359" y="166.517969" style="fill: #4a5568; stroke: #4a5568; stroke-width: 0.8"/>
      </g>
     </g>
     <g id="text_13">
      <text style="font-size: 11px; font-family: 'DejaVu Sans'; text-anchor: end; fill: #4a5568" x="36.198359" y="170.69668" transform="rotate(-0 36.198359 170.69668)">4</text>
     </g>
    </g>
    <g id="ytick_4">
     <g id="line2d_25">
      <path d="M 43.198359 130.657969 
L 560.838359 130.657969 
" clip-path="url(#p03bd994740)" style="fill: none; stroke: #edf2f7; stroke-linecap: square"/>
     </g>
     <g id="line2d_26">
      <g>
       <use xlink:href="#m5f1094da16" x="43.198359" y="130.657969" style="fill: #4a5568; stroke: #4a5568; stroke-width: 0.8"/>
      </g>
     </g>
     <g id="text_14">
      <text style="font-size: 11px; font-family: 'DejaVu Sans'; text-anchor: end; fill: #4a5568" x="36.198359" y="134.83668" transform="rotate(-0 36.198359 134.83668)">6</text>
     </g>
    </g>
    <g id="ytick_5">
     <g id="line2d_27">
      <path d="M 43.198359 94.797969 
L 560.838359 94.797969 
" clip-path="url(#p03bd994740)" style="fill: none; stroke: #edf2f7; stroke-linecap: square"/>
     </g>
     <g id="line2d_28">
      <g>
       <use xlink:href="#m5f1094da16" x="43.198359" y="94.797969" style="fill: #4a5568; stroke: #4a5568; stroke-width: 0.8"/>
      </g>
     </g>
     <g id="text_15">
      <text style="font-size: 11px; font-family: 'DejaVu Sans'; text-anchor: end; fill: #4a5568" x="36.198359" y="98.97668" transform="rotate(-0 36.198359 98.97668)">8</text>
     </g>
    </g>
    <g id="ytick_6">
     <g id="line2d_29">
      <path d="M 43.198359 58.937969 
L 560.838359 58.937969 
" clip-path="url(#p03bd994740)" style="fill: none; stroke: #edf2f7; stroke-linecap: square"/>
     </g>
     <g id="line2d_30">
      <g>
       <use xlink:href="#m5f1094da16" x="43.198359" y="58.937969" style="fill: #4a5568; stroke: #4a5568; stroke-width: 0.8"/>
      </g>
     </g>
     <g id="text_16">
      <text style="font-size: 11px; font-family: 'DejaVu Sans'; text-anchor: end; fill: #4a5568" x="36.198359" y="63.11668" transform="rotate(-0 36.198359 63.11668)">10</text>
     </g>
    </g>
    <g id="ytick_7">
     <g id="line2d_31">
      <path d="M 43.198359 23.077969 
L 560.838359 23.077969 
" clip-path="url(#p03bd994740)" style="fill: none; stroke: #edf2f7; stroke-linecap: square"/>
     </g>
     <g id="line2d_32">
      <g>
       <use xlink:href="#m5f1094da16" x="43.198359" y="23.077969" style="fill: #4a5568; stroke: #4a5568; stroke-width: 0.8"/>
      </g>
     </g>
     <g id="text_17">
      <text style="font-size: 11px; font-family: 'DejaVu Sans'; text-anchor: end; fill: #4a5568" x="36.198359" y="27.25668" transform="rotate(-0 36.198359 27.25668)">12</text>
     </g>
    </g>
    <g id="text_18">
     <text style="font-size: 11px; font-family: 'DejaVu Sans'; text-anchor: middle; fill: #2d3748" x="15.558281" y="130.657969" transform="rotate(-90 15.558281 130.657969)">BM25 tf component</text>
    </g>
   </g>
   <g id="line2d_33">
    <path d="M 43.198359 238.237969 
L 44.929597 235.989693 
L 46.660834 234.0067 
L 48.392072 232.244654 
L 50.123309 230.668576 
L 53.585784 227.967802 
L 57.048259 225.737751 
L 60.510734 223.865223 
L 63.973209 222.270622 
L 67.435684 220.896345 
L 72.629396 219.157531 
L 77.823109 217.717225 
L 83.016821 216.504635 
L 89.941771 215.157635 
L 96.866721 214.04515 
L 105.522908 212.900187 
L 115.910333 211.791612 
L 128.028995 210.76119 
L 141.878894 209.829074 
L 157.460032 209.000662 
L 176.503644 208.208387 
L 200.740968 207.437969 
L 230.172005 206.738335 
L 266.527991 206.102227 
L 313.271403 205.514014 
L 375.595951 204.968483 
L 458.695349 204.480761 
L 560.838359 204.085588 
L 560.838359 204.085588 
" clip-path="url(#p03bd994740)" style="fill: none; stroke: #b7791f; stroke-width: 2.4; stroke-linecap: square"/>
   </g>
   <g id="line2d_34">
    <path d="M 43.198359 238.237969 
L 46.660834 234.567549 
L 50.123309 231.452728 
L 53.585784 228.776227 
L 57.048259 226.451609 
L 60.510734 224.413759 
L 63.973209 222.612696 
L 67.435684 221.009417 
L 72.629396 218.909497 
L 77.823109 217.10656 
L 83.016821 215.541766 
L 88.210533 214.170855 
L 95.135483 212.587039 
L 102.060433 211.227778 
L 110.71662 209.777651 
L 119.372808 208.545835 
L 129.760232 207.292163 
L 141.878894 206.068941 
L 155.728794 204.910831 
L 171.309931 203.837658 
L 190.353543 202.770201 
L 211.128393 201.829972 
L 237.096955 200.890749 
L 268.259229 200.007692 
L 304.615216 199.209138 
L 349.627389 198.453463 
L 405.026988 197.756495 
L 474.276486 197.116388 
L 560.838359 196.540294 
L 560.838359 196.540294 
" clip-path="url(#p03bd994740)" style="fill: none; stroke: #1a365d; stroke-width: 2.4; stroke-linecap: square"/>
   </g>
   <g id="line2d_35">
    <path d="M 43.198359 238.237969 
L 46.660834 235.050413 
L 50.123309 232.17102 
L 53.585784 229.557162 
L 57.048259 227.173726 
L 60.510734 224.991531 
L 65.704446 222.04313 
L 70.898159 219.426165 
L 76.091871 217.087725 
L 81.285583 214.98559 
L 86.479296 213.085664 
L 93.404246 210.819588 
L 100.329195 208.811113 
L 107.254145 207.018675 
L 115.910333 205.032173 
L 124.56652 203.281109 
L 134.953945 201.43559 
L 145.341369 199.819862 
L 157.460032 198.171899 
L 171.309931 196.542166 
L 185.159831 195.130869 
L 200.740968 193.753412 
L 219.78458 192.31144 
L 240.55943 190.977391 
L 263.065517 189.751976 
L 289.034078 188.558749 
L 318.465115 187.426791 
L 353.089864 186.322798 
L 392.908326 185.281269 
L 439.651737 184.288105 
L 495.051336 183.343775 
L 560.838359 182.455747 
L 560.838359 182.455747 
" clip-path="url(#p03bd994740)" style="fill: none; stroke: #553c9a; stroke-width: 2.4; stroke-linecap: square"/>
   </g>
   <g id="line2d_36">
    <path d="M 43.198359 238.237969 
L 388.538968 -1 
L 388.538968 -1 
" clip-path="url(#p03bd994740)" style="fill: none; stroke-dasharray: 1.6,2.64; stroke-dashoffset: 0; stroke: #a0aec0; stroke-width: 1.6"/>
   </g>
   <g id="patch_3">
    <path d="M 43.198359 238.237969 
L 43.198359 23.077969 
" style="fill: none; stroke: #cbd5e0; stroke-width: 0.8; stroke-linejoin: miter; stroke-linecap: square"/>
   </g>
   <g id="patch_4">
    <path d="M 560.838359 238.237969 
L 560.838359 23.077969 
" style="fill: none; stroke: #cbd5e0; stroke-width: 0.8; stroke-linejoin: miter; stroke-linecap: square"/>
   </g>
   <g id="patch_5">
    <path d="M 43.198359 238.237969 
L 560.838359 238.237969 
" style="fill: none; stroke: #cbd5e0; stroke-width: 0.8; stroke-linejoin: miter; stroke-linecap: square"/>
   </g>
   <g id="patch_6">
    <path d="M 43.198359 23.077969 
L 560.838359 23.077969 
" style="fill: none; stroke: #cbd5e0; stroke-width: 0.8; stroke-linejoin: miter; stroke-linecap: square"/>
   </g>
   <g id="text_19">
    <text style="font-style: italic; font-size: 9px; font-family: 'DejaVu Sans'; fill: #4a5568" transform="translate(302.018359 205.919508)">diminishing returns: the 10th hit</text>
    <text style="font-style: italic; font-size: 9px; font-family: 'DejaVu Sans'; fill: #4a5568" transform="translate(302.018359 216.721969)">adds far less than the 1st</text>
   </g>
   <g id="text_20">
    <text style="font-weight: 700; font-size: 13px; font-family: 'DejaVu Sans'; text-anchor: middle; fill: #1a202c" x="302.018359" y="17.077969" transform="rotate(-0 302.018359 17.077969)">BM25 term-frequency saturation  (b = 0.75, dl = avgdl)</text>
   </g>
   <g id="legend_1">
    <g id="line2d_37">
     <path d="M 53.098359 37.48625 
L 64.098359 37.48625 
L 75.098359 37.48625 
" style="fill: none; stroke: #b7791f; stroke-width: 2.4; stroke-linecap: square"/>
    </g>
    <g id="text_21">
     <text style="font-size: 11px; font-family: 'DejaVu Sans'; text-anchor: start; fill: #1a202c" x="83.898359" y="41.33625" transform="rotate(-0 83.898359 41.33625)">k1 = 1.0</text>
    </g>
    <g id="line2d_38">
     <path d="M 53.098359 53.987109 
L 64.098359 53.987109 
L 75.098359 53.987109 
" style="fill: none; stroke: #1a365d; stroke-width: 2.4; stroke-linecap: square"/>
    </g>
    <g id="text_22">
     <text style="font-size: 11px; font-family: 'DejaVu Sans'; text-anchor: start; fill: #1a202c" x="83.898359" y="57.837109" transform="rotate(-0 83.898359 57.837109)">k1 = 1.5  (AI-Houkai default)</text>
    </g>
    <g id="line2d_39">
     <path d="M 53.098359 70.487969 
L 64.098359 70.487969 
L 75.098359 70.487969 
" style="fill: none; stroke: #553c9a; stroke-width: 2.4; stroke-linecap: square"/>
    </g>
    <g id="text_23">
     <text style="font-size: 11px; font-family: 'DejaVu Sans'; text-anchor: start; fill: #1a202c" x="83.898359" y="74.337969" transform="rotate(-0 83.898359 74.337969)">k1 = 2.5</text>
    </g>
    <g id="line2d_40">
     <path d="M 53.098359 86.988828 
L 64.098359 86.988828 
L 75.098359 86.988828 
" style="fill: none; stroke-dasharray: 1.6,2.64; stroke-dashoffset: 0; stroke: #a0aec0; stroke-width: 1.6"/>
    </g>
    <g id="text_24">
     <text style="font-size: 11px; font-family: 'DejaVu Sans'; text-anchor: start; fill: #1a202c" x="83.898359" y="90.838828" transform="rotate(-0 83.898359 90.838828)">linear (no saturation)</text>
    </g>
   </g>
  </g>
 </g>
 <defs>
  <clipPath id="p03bd994740">
   <rect x="43.198359" y="23.077969" width="517.64" height="215.16"/>
  </clipPath>
 </defs>
</svg>
